HIERARCHY
ROOT Hips
{
	OFFSET 0.000000 0.000000 0.000000
	CHANNELS 6 Xposition Yposition Zposition Zrotation Yrotation Xrotation 
	JOINT LeftUpLeg_virtual
	{
		OFFSET 0.000000 0.000000 0.000000
		CHANNELS 3 Zrotation Yrotation Xrotation
		JOINT LeftUpLeg
		{
			OFFSET 8.479694 -4.795517 -0.379053
			CHANNELS 3 Zrotation Yrotation Xrotation
			JOINT LeftLeg
			{
				OFFSET 0.485052 -32.551468 0.112863
				CHANNELS 3 Zrotation Yrotation Xrotation
				JOINT LeftFoot
				{
					OFFSET 0.438033 -32.635670 -3.012641
					CHANNELS 3 Zrotation Yrotation Xrotation
					JOINT LeftToeBase
					{
						OFFSET 0.970169 -13.225353 11.864223
						CHANNELS 3 Zrotation Yrotation Xrotation
						End Site
						{
							OFFSET 0.000000 0.000000 0.000000
						}
					}
				}
			}
		}
	}
	JOINT RightUpLeg_virtual
	{
		OFFSET 0.000000 0.000000 0.000000
		CHANNELS 3 Zrotation Yrotation Xrotation
		JOINT RightUpLeg
		{
			OFFSET -8.479694 -4.795517 -0.379053
			CHANNELS 3 Zrotation Yrotation Xrotation
			JOINT RightLeg
			{
				OFFSET -0.484100 -32.551483 0.112903
				CHANNELS 3 Zrotation Yrotation Xrotation
				JOINT RightFoot
				{
					OFFSET -0.438985 -32.635651 -3.012681
					CHANNELS 3 Zrotation Yrotation Xrotation
					JOINT RightToeBase
					{
						OFFSET -0.970169 -13.225354 11.864223
						CHANNELS 3 Zrotation Yrotation Xrotation
						End Site
						{
							OFFSET 0.000000 0.000000 0.000000
						}
					}
				}
			}
		}
	}
	JOINT Spine_virtual
	{
		OFFSET 0.000000 0.000000 0.000000
		CHANNELS 3 Zrotation Yrotation Xrotation
		JOINT Spine
		{
			OFFSET 0.000000 7.722015 1.166203
			CHANNELS 3 Zrotation Yrotation Xrotation
			JOINT Spine1
			{
				OFFSET 0.000000 12.024086 0.248766
				CHANNELS 3 Zrotation Yrotation Xrotation
				JOINT Spine2
				{
					OFFSET -0.000000 11.503036 -0.491240
					CHANNELS 3 Zrotation Yrotation Xrotation
					JOINT Neck_virtual
					{
						OFFSET 0.000000 0.000000 0.000000
						CHANNELS 3 Zrotation Yrotation Xrotation
						JOINT Neck
						{
							OFFSET 0.000000 18.430687 -3.123054
							CHANNELS 3 Zrotation Yrotation Xrotation
							JOINT Head
							{
								OFFSET -0.000000 9.051071 1.034021
								CHANNELS 3 Zrotation Yrotation Xrotation
								End Site
								{
									OFFSET 0.000000 0.000000 0.000000
								}
							}
						}
					}
					JOINT LeftShoulder_virtual
					{
						OFFSET 0.000000 0.000000 0.000000
						CHANNELS 3 Zrotation Yrotation Xrotation
						JOINT LeftShoulder
						{
							OFFSET 6.197824 13.665230 -4.064723
							CHANNELS 3 Zrotation Yrotation Xrotation
							JOINT LeftArm
							{
								OFFSET 7.778132 -0.187073 -1.709282
								CHANNELS 3 Zrotation Yrotation Xrotation
								JOINT LeftForeArm
								{
									OFFSET 21.954697 0.000000 -2.041093
									CHANNELS 3 Zrotation Yrotation Xrotation
									JOINT LeftHand
									{
										OFFSET 22.992908 0.000000 -0.870901
										CHANNELS 3 Zrotation Yrotation Xrotation
										End Site
										{
											OFFSET 0.000000 0.000000 0.000000
										}
									}
								}
							}
						}
					}
					JOINT RightShoulder_virtual
					{
						OFFSET 0.000000 0.000000 0.000000
						CHANNELS 3 Zrotation Yrotation Xrotation
						JOINT RightShoulder
						{
							OFFSET -6.197824 13.665230 -4.064723
							CHANNELS 3 Zrotation Yrotation Xrotation
							JOINT RightArm
							{
								OFFSET -7.778132 -0.187073 -1.709282
								CHANNELS 3 Zrotation Yrotation Xrotation
								JOINT RightForeArm
								{
									OFFSET -21.954697 0.000000 -2.041093
									CHANNELS 3 Zrotation Yrotation Xrotation
									JOINT RightHand
									{
										OFFSET -22.992908 0.000000 -0.870901
										CHANNELS 3 Zrotation Yrotation Xrotation
										End Site
										{
											OFFSET 0.000000 0.000000 0.000000
										}
									}
								}
							}
						}
					}
				}
			}
		}
	}
}
MOTION
Frames: 9
Frame Time: 0.033333
10.338573 78.564766 -16.486528 179.734994 -1.286305 -179.715910 -2.541240 -0.254707 11.567157 2.921481 -1.687975 -33.177630 10.478760 0.133189 31.382947 -7.419719 -6.147986 -16.652706 0.000000 0.000000 0.000000 0.072319 -0.643157 11.133367 0.424430 8.022086 -33.113450 -0.562901 2.486203 32.613375 9.062928 5.147477 -14.279519 0.000000 0.000000 0.000000 3.592862 2.527931 -4.895009 -3.706835 -1.637367 -1.102525 -0.481081 -1.541579 10.901401 0.019353 0.180590 0.015467 -0.744244 -0.174742 11.856262 1.343651 -2.435326 -4.260842 0.000000 0.000000 0.000000 0.402547 0.555035 8.809250 -11.436331 -8.537853 2.334089 -59.363018 -4.679933 6.329310 -0.066581 -21.987344 1.894863 0.000000 0.000000 0.000000 -3.220861 2.000340 8.543954 26.147550 -0.889549 3.421469 48.962204 3.828500 11.930340 -4.215916 22.570650 -2.667664 0.000000 0.000000 0.000000 
10.393136 78.566933 -16.360201 179.545565 -1.197183 -179.592010 -2.265059 -0.250407 11.832559 3.212365 -1.962624 -33.003324 10.509049 -0.253064 31.434214 -7.871807 -6.689224 -16.931890 0.000000 0.000000 0.000000 0.239461 -0.586681 11.154012 0.670974 7.749668 -33.275162 -0.440729 1.951172 32.941152 9.213042 5.287303 -14.249406 0.000000 0.000000 0.000000 3.574998 2.704954 -4.879221 -3.762843 -1.540140 -1.117330 -0.551755 -1.509619 10.799624 0.032376 0.128970 0.040675 -0.808941 -0.267048 11.822943 1.258066 -2.345022 -4.333052 0.000000 0.000000 0.000000 0.341599 0.499536 8.826291 -11.497148 -8.597173 2.386707 -59.266863 -4.950566 6.585008 -0.060236 -21.907181 1.928890 0.000000 0.000000 0.000000 -3.245597 1.982331 8.520768 26.040561 -0.788640 3.425111 48.913252 3.951590 12.161416 -4.265825 22.634125 -2.584258 0.000000 0.000000 0.000000 
10.435262 78.554146 -16.189802 179.556548 -1.521793 -179.585030 -2.218959 -0.202832 11.781440 3.361230 -2.151390 -33.060923 10.406841 -0.117083 31.338551 -8.163211 -6.917966 -16.909177 0.000000 0.000000 0.000000 0.270169 -0.458899 11.163539 0.705081 7.537889 -33.390411 -0.476107 1.923532 33.077807 9.112645 5.175227 -14.173028 0.000000 0.000000 0.000000 3.628728 2.779357 -4.784759 -3.710760 -1.487713 -1.103532 -0.578478 -1.544807 10.736222 0.032165 0.183422 0.060911 -0.809134 -0.255780 11.877784 1.138032 -2.313553 -4.241830 0.000000 0.000000 0.000000 0.338182 0.472225 8.913602 -11.518656 -8.630814 2.362347 -58.965959 -5.296080 7.039721 -0.258164 -22.016326 2.236284 0.000000 0.000000 0.000000 -3.237088 1.896287 8.557830 25.899686 -0.626465 3.503052 48.811974 4.170911 12.381598 -4.242882 22.688092 -2.589546 0.000000 0.000000 0.000000 
10.475245 78.547684 -16.007149 179.585426 -2.094572 -179.606108 -2.189053 -0.143318 11.635532 3.587055 -2.428063 -33.131212 10.220731 0.028950 31.144242 -8.562016 -7.237070 -16.823065 0.000000 0.000000 0.000000 0.303713 -0.250864 11.165061 0.742688 7.190764 -33.512193 -0.538306 1.899681 33.126742 8.930562 4.989396 -14.174133 0.000000 0.000000 0.000000 3.656100 2.918769 -4.672727 -3.657197 -1.448802 -1.117796 -0.589897 -1.592744 10.818771 0.015873 0.202660 0.061031 -0.812895 -0.305403 11.814813 0.972750 -2.223659 -4.107300 0.000000 0.000000 0.000000 0.394608 0.431866 8.810547 -11.559672 -8.595799 2.495887 -58.654878 -5.672866 7.661486 -0.240018 -22.146164 2.287993 0.000000 0.000000 0.000000 -3.265096 1.944418 8.426998 25.766933 -0.469958 3.544507 48.765187 4.166109 12.475994 -4.284106 22.852590 -2.705683 0.000000 0.000000 0.000000 
10.478703 78.558502 -15.800593 179.599428 -2.902019 -179.650381 -2.191238 -0.085554 11.490465 3.863657 -2.781163 -33.138401 9.918848 0.203912 30.871219 -9.008985 -7.614086 -16.726269 0.000000 0.000000 0.000000 0.337804 -0.006873 11.207435 0.752465 6.759148 -33.600477 -0.643121 1.960889 33.253261 8.676306 4.695674 -14.153412 0.000000 0.000000 0.000000 3.666104 3.139433 -4.457491 -3.570437 -1.303155 -1.158847 -0.576504 -1.575384 10.772243 0.063224 0.118646 0.031186 -0.885725 -0.485708 11.804527 0.733590 -2.101204 -3.865724 0.000000 0.000000 0.000000 0.372569 0.257186 8.767027 -11.703793 -8.358957 2.488263 -58.340689 -5.977613 8.063286 -0.358131 -22.281575 2.454646 0.000000 0.000000 0.000000 -3.318675 1.814599 8.427530 25.702550 -0.103089 3.623677 48.744786 3.878575 12.430500 -4.273491 23.108750 -2.833077 0.000000 0.000000 0.000000 
10.432886 78.582878 -15.585610 179.620916 -4.099100 -179.680407 -2.166384 -0.135835 11.420281 4.197955 -3.154939 -33.100961 9.574050 0.419657 30.594767 -9.534042 -8.142309 -16.721251 0.000000 0.000000 0.000000 0.408832 0.244889 11.260433 0.771010 6.278490 -33.716085 -0.743753 2.003297 33.347108 8.428706 4.367309 -14.166867 0.000000 0.000000 0.000000 3.723073 3.185371 -4.232220 -3.474946 -1.121572 -1.235202 -0.643483 -1.695739 10.761155 0.053662 0.277929 0.025010 -0.943883 -0.535243 11.727211 0.574834 -2.071468 -3.587555 0.000000 0.000000 0.000000 0.320593 0.234523 8.701330 -11.888274 -8.161290 2.549781 -58.039778 -6.526846 8.417938 -0.467899 -22.187960 2.592139 0.000000 0.000000 0.000000 -3.377503 1.616180 8.410550 25.707285 0.213934 3.775331 48.736555 3.383644 12.367515 -4.294718 23.448075 -2.968597 0.000000 0.000000 0.000000 
10.325170 78.610733 -15.367796 179.620506 -5.472120 -179.741892 -2.086749 -0.452666 11.441235 4.510349 -3.577933 -33.210705 8.829348 0.686452 30.091310 -9.715083 -8.284712 -16.648233 0.000000 0.000000 0.000000 0.488377 0.499582 11.367388 0.760246 5.766679 -33.802429 -0.844505 2.134630 33.476086 8.209399 4.021256 -14.197908 0.000000 0.000000 0.000000 3.784579 3.243384 -3.962881 -3.354734 -1.045130 -1.352761 -0.765366 -1.680624 10.747973 0.007242 0.298940 -0.003664 -1.018389 -0.422928 11.673068 0.327178 -1.934925 -3.237374 0.000000 0.000000 0.000000 0.287670 0.247581 8.569561 -12.192855 -7.814448 2.602761 -57.789834 -7.143732 8.938879 -0.470682 -22.058407 2.563275 0.000000 0.000000 0.000000 -3.464345 1.727778 8.337511 25.823875 0.395934 3.963476 48.740636 2.611770 12.292975 -4.390875 23.831722 -3.126924 0.000000 0.000000 0.000000 
10.109214 78.620872 -15.205733 179.689177 -7.195054 -179.750799 -1.862427 -1.086738 11.645625 4.873235 -3.983881 -33.466219 7.681659 1.094277 29.644735 -9.723735 -8.303954 -16.639463 0.000000 0.000000 0.000000 0.464581 0.730156 11.460150 0.743361 5.067404 -33.954667 -0.950584 2.198509 33.646926 7.953963 3.611771 -14.446654 0.000000 0.000000 0.000000 3.922990 3.220524 -3.748252 -3.188616 -0.759579 -1.550305 -0.880581 -1.591617 10.786701 0.051479 0.206011 0.005234 -1.217534 -0.639909 11.625365 0.178430 -1.851830 -2.817446 0.000000 0.000000 0.000000 0.135184 0.206200 8.466957 -12.430958 -7.550140 2.614987 -57.514892 -7.923423 9.814563 -0.559867 -22.131799 2.710030 0.000000 0.000000 0.000000 -3.663529 1.650834 8.248492 25.888901 0.553866 4.178810 48.661020 1.623486 12.078690 -4.499516 24.072013 -3.249180 0.000000 0.000000 0.000000 
9.809301 78.601334 -15.123112 179.842829 -9.259151 -179.767779 -1.576499 -2.215122 12.059009 5.269613 -4.159055 -33.955582 6.201260 1.549302 29.350931 -9.578746 -8.228464 -16.720578 0.000000 0.000000 0.000000 0.546605 0.564544 11.626073 0.723816 4.002292 -34.062785 -0.982447 2.037955 33.901856 7.832882 3.303206 -14.819697 0.000000 0.000000 0.000000 4.108606 2.686150 -3.607320 -2.946789 -0.673466 -1.643385 -1.015024 -1.656197 10.743409 0.018645 0.383795 0.002378 -1.432324 -0.495469 11.553266 -0.004228 -1.727133 -2.455371 0.000000 0.000000 0.000000 -0.033668 0.279588 8.215110 -12.565491 -7.108711 2.694538 -57.319467 -8.519443 11.023125 -0.550728 -22.618598 2.920639 0.000000 0.000000 0.000000 -3.846508 1.795503 8.226963 25.942160 0.813320 4.413451 48.439592 0.594371 11.561039 -4.535282 24.316527 -3.149389 0.000000 0.000000 0.000000 
